<svg xmlns="http://www.w3.org/2000/svg" viewBox="0 0 369.29 225.25"><defs><style>.cls-1{fill:none;stroke:#1d1d1b;stroke-miterlimit:10;}</style></defs><title>Fichier 1</title><g id="Calque_2" data-name="Calque 2"><g id="Calque_2-2" data-name="Calque 2"><path class="cls-1" d="M37.54,9.13a21,21,0,0,1-8.39,8.53c-5.6,2.94-9.73,1.28-16.49,3.5a30.13,30.13,0,0,0-12.3,8"/><path class="cls-1" d="M4.9,31.43A88.82,88.82,0,0,0,30.59,26.5c7.72-2.71,8.45-4.18,14.78-5.78,11.8-3,16.67.26,28-1.28a55.68,55.68,0,0,0,21-7.5"/><path class="cls-1" d="M6.19,40.85a114.42,114.42,0,0,0,25.9-4.07,116.3,116.3,0,0,0,14.56-5.14c23.43-9.63,30.35-.91,48-8.78,4.28-1.91,8.63-4.44,15.84-5.35,2.7-.34,9-1.14,15,.86,4.8,1.59,8.06,4.51,24,27.4,6.91,9.93,10.28,15.1,17.34,17.77,3.32,1.25,5.85-.3,10.92,1.5,4.76,1.69,6.69,4,10.4,3.6.31,0,4.17-.46,6.3-3.17,6.79-8.65-9.68-33.08-10.92-34.9-2-3-2.65-3.45-3.64-5.57-4.05-8.64-2-18.12.43-24.83"/><path class="cls-1" d="M126.08,9.8c21.13,12,28.76,20.88,31.68,27a34.93,34.93,0,0,0,6.85,9.63c6.09,6.05,11.41,6.72,12.85,6.85,1.89.17,5.26.47,6.42-1.28,1.88-2.84-3.33-9-5.78-12.63-4.58-6.71-8.68-17.67-6.64-36.4"/><path class="cls-1" d="M8.61,46.78c12.31-1.41,21.53-.12,22.74,3.75,1.07,3.42-4.07,9-9.61,11-6.55,2.39-12.37-.64-13.36-1.17"/><path class="cls-1" d="M6.27,66.47a71.21,71.21,0,0,0,23,2.34c6.54-.42,8.33-1.52,9.38-2.81,3.23-4-1-9.32,1.17-15.94,1.85-5.54,7-8.37,11-10.55,9.59-5.24,14.32-2.25,30.24-4.92,15-2.52,15.16-5.9,26.25-6.09,6.32-.12,15.64-.28,23.44,5.39,9,6.53,4.89,12.75,14.77,22.5,2.09,2.06,1.25.78,22.27,15.24,5.54,3.81,8.78,6.1,10.79,10.55,2.22,4.93.53,7.19,3,11.95s7.78,9.6,12.9,8.91c4.53-.61,7.28-5.45,8.67-8,9.57-17.36,3.48-44.83-6.8-59.31a32.71,32.71,0,0,1-4.45-8c-3.13-8.24-2.18-16.36-.71-22.27"/><path class="cls-1" d="M204,7.73c-.87,1.95-4.08,9.83-.81,18.4a23.81,23.81,0,0,0,7.52,10c4.35,3.53,7,3.32,13.67,6C229,44,241.44,48.91,249.2,59.64c3,4.14,2.41,5.16,5.2,7.74a22.79,22.79,0,0,0,19.84,5.22c2.11-.48,7.39-2,15.24-11.91,1.85-2.31,22.75-29,13.79-40.31-3.91-4.93-12-5-15-5-10.72-.07-14.26,6.14-22.76,6.27-4.89.07-11.8-1.86-20.26-11.07"/><path class="cls-1" d="M216,9.73c-.23.43-3.93,7.82.21,14.62,1.39,2.3,3.75,3.64,8.35,6.27,8,4.58,9.7,3.76,14,6.89,5.57,4.06,4,6.37,9.61,11.07,2.23,1.87,8.15,6.84,16.29,6.68,5.67-.11,14.43-2.74,17.13-10,1.36-3.68,1.39-9.1-1.67-12.33-3.27-3.44-7.23-1.38-15-2.71-10.92-1.86-22.44-9.15-26.53-19.42a24.4,24.4,0,0,1-1.67-8.15"/><path class="cls-1" d="M262.33,36.26c-3.72-2.08-10.22-4.4-12.11-2.09-1.19,1.45-.06,4.15.21,4.8,2.13,5.1,8.69,6.41,11.07,6.89.83.17,8.16,1.64,9.19-.62S266.55,38.6,262.33,36.26Z"/><path class="cls-1" d="M57.82,45.32c-8,3.06-8.79,6.21-9,7.13-.11.6-.3,2.33,3.76,8.3,4.6,6.77,6.66,7.2,8.17,10.89,1.82,4.46-.19,6.23.13,12.19.64,12.1,9.73,20.29,10.11,20.62,1.14,1,8.6,7.41,19.07,7.14,2.82-.08,9.66-.25,12.45-4.54,1.44-2.22.68-3.83,2.59-7.26a17.89,17.89,0,0,1,5.58-6c7.27-4.54,16.8-.15,17.38.13,7.42,3.56,5.63,8.24,13.74,14.27.56.41,12.57,9.1,22.18,4.92.91-.39,4.71-2,5.71-5.44.71-2.44-.54-4-1.69-7.91-2-6.94-.08-8.75-1.68-13.23C164.91,82.5,162,80.32,157,76.7c-12.1-8.8-19.28-7-22.18-13.49-1.45-3.27.05-4.42-2.07-10.89-.79-2.39-2.08-6.32-4.41-9.08-5-5.89-14.18-5.71-22.31-5.45-13.47.44-12.68,4-26.85,4.8C71.08,43.08,65.84,42.23,57.82,45.32Z"/><path class="cls-1" d="M92.62,50c-7.46.74-8.59-1.53-14.86.3-4.58,1.34-11.14,4.65-11.32,8.9-.1,2.15,1.52,2.57,2.83,5.66,2.32,5.52-.9,8.79-.61,15.37.06,1.47.61,9.95,7.18,15a17.86,17.86,0,0,0,17.09,2.33c4.24-1.76,3.74-4,9.2-7.79a30.29,30.29,0,0,1,16.58-5.86c8.75-.19,16,4.87,17,5.56,3.8,2.65,5.41,5.13,9.41,5.56.86.1,5.15.56,7.58-2.42a7.55,7.55,0,0,0,.91-7.49c-1.3-3-4.3-3.72-10.82-6.26-15.69-6.12-18.13-9.78-19-11.43s-.15-1.64-1.41-7.28-1.79-8.43-2.93-10.21a12.79,12.79,0,0,0-4.66-4.35C108.76,42.6,104.3,48.87,92.62,50Z"/><path class="cls-1" d="M104.64,53.72c-3.37-.32-3.67,2.14-9.26,3.09-5,.84-6.24-.87-10.25.5a11.61,11.61,0,0,0-6.59,4.92c-3.09,5.41.57,12,.84,12.5.69,1.2.8,1,1.25,1.92,2.12,4.52-1.45,8,0,10.92C82,90.31,87,91.36,90.55,90.15c5.7-1.93,8.21-9.8,6.75-12.83A2.36,2.36,0,0,1,97,75.4c.48-1.06,2.4-1.13,3.25-1.17,5.55-.27,10.57-.51,12.76-2.67,1.9-1.88,1.53-5.08,1.33-6.75C113.68,59.48,109.35,54.18,104.64,53.72Z"/><path class="cls-1" d="M98.55,60.72c-2.36.91-3.73,5-1.83,7.42a4.71,4.71,0,0,0,5.08,1.51,4.64,4.64,0,0,0,3.26-3.76C105.34,62.75,101.26,59.69,98.55,60.72Z"/><path class="cls-1" d="M9.43,72.21C32.62,74.09,44.34,81.84,50.78,89c3.34,3.69,4.35,6.2,10.21,12.21,6.89,7.06,14.88,15.06,26.78,17.3,3.88.74,9.25,1.68,14.75-1.09,1.7-.85,7.86-4.29,9.66-10.57.63-2.18.25-3,1.28-4.19,2.75-3.06,10.38-2.29,14,1.64a8.74,8.74,0,0,1,1.64,2.55c2.21,5.14,9.84,16.61,20.59,19.86a24.22,24.22,0,0,0,18.9-2.12c5.92-3.58,4.88-7.35,10.48-10.48,7.49-4.17,12.43.83,20.2-2,9.23-3.42,13-14.47,15.08-20.46,4.17-12.11,3.56-27.77-.51-33.49a5.7,5.7,0,0,1-1.3-3.87c.31-2.75,3.47-5.12,6.32-5.65,4.29-.81,8.21,2.49,10.64,4.65,15.89,14.18,23.84,21.27,25.39,31.08,3.18,20.06-15.59,36.89-18.81,39.77-15.92,14.29-28.08,9.24-40.28,24.85-8.17,10.45-6.5,17.57-13.55,20.33s-12.84-2.56-35.38-15.44c-32.64-18.65-40.6-19.18-44.42-19.2-11.28-.06-14.21,4.12-23.34,1.51-12.42-3.55-14.47-13.41-23.72-18.45-7.73-4.21-21.66-5.68-48.56,10.17"/><path class="cls-1" d="M268.72,219.93c-3.93-10.38-3.16-17.31-1.63-21.79,1-2.77,2.25-4.82,2.12-8.27-.21-5.21-3.49-8.34-7-12.72-1.2-1.52-15.44-19.77-11-26.42a6.68,6.68,0,0,1,6.41-2.48c5.73,1,5.33,10.09,12.56,18.94,6.56,8,10.56,5,16.33,12.13,7.75,9.57,9.55,26.17,1.72,34.83a18.35,18.35,0,0,1-7.35,4.82"/><path class="cls-1" d="M275.14,205.55c2.68,1.27,7.16-2,9.08-5.71,1.35-2.61,1.22-5,1.07-7.91-.19-3.58-.38-7.29-3.1-9.1-1.68-1.12-4.47-1.62-5.65-.4-1.83,1.89,2.4,5.63,1,10.68-1.12,4.13-4.86,4.95-4.63,8.55A4.68,4.68,0,0,0,275.14,205.55Z"/><path class="cls-1" d="M306.19,206c-2.26-7-4.24-17.08-1.17-28.14,1.16-4.14,1.8-4,2.37-7.26,2.17-12.38-4.68-29.16-16.14-34.16-3.19-1.39-6.76-1.88-10.14-5.51-1.12-1.22-4.21-4.54-3.76-8.41.48-4.11,4.43-4.41,6.16-9.28,1.58-4.45-1.07-6-.07-10.21,1.74-7.36,12.3-13.48,19.47-11.31,2.68.82,2.2,2,6.91,5,6.54,4.21,9.56,3.33,14.66,6.67s5.73,6.75,8.61,9.44c4.41,4.14,13.89,6.28,36-2.24"/><path class="cls-1" d="M311.87,158.51c1,5.54,5.18,11.74,9.54,11.64,1.55,0,3-1.36,6-4,3.63-3.28,6.32-5.71,8.53-9.72,2.53-4.61,1-5.15,4-12,2.43-5.61,3.86-6.21,4-9.26.24-4.71-2.9-8.44-4.36-10.18-5.43-6.44-10.37-4.77-15.66-11.71-1.72-2.24-1.76-3.14-3.47-4.38-3.37-2.42-5.79-.8-11.41-2.92-3.72-1.41-4-2.61-6.25-2.54-3,.1-5.76,2.33-7.22,4.62-1.88,3-.33,4-2.29,10.65-.8,2.74-1.38,3.66-1.4,5.86a11,11,0,0,0,1.54,6.12c1.55,2.37,3.68,2.93,5.89,4.09,7.11,3.76,11.8,12.2,12.43,19.09C312,156.27,311.48,156.34,311.87,158.51Z"/><path class="cls-1" d="M317.85,154.68c-2.83-2.53-.34-5.29-2.82-12-1.49-4-5.26-10.79-10-12.85a8.57,8.57,0,0,1-3-2c-.28-.29-2.57-2.65-2.12-4.88.57-2.85,5.26-3.89,6.48-4.16,6.24-1.38,11.72,1.57,13.17,2.38,8.81,4.89,13.69,15.39,12.82,24.47-.26,2.7-.67,7-4.15,9.32C325.15,157.09,320.42,157,317.85,154.68Z"/><path class="cls-1" d="M365.35,102.43c-17.08,5.49-24.35,3.26-27.75-.15s-2-6.9-6.53-10.91c-5.39-4.8-9.57-1.82-16.83-6.7-5.84-3.91-4.86-7-10-9.27A18.57,18.57,0,0,0,288,76.5c-4.67,2.78-5.56,6.61-10.88,19.67-5.5,13.46-8.24,20.19-11.07,24-8.76,11.65-15.23,8.22-19.47,17.2-5,10.48-1.6,26.74,6.22,36.12,2.19,2.63,4.14,4,5.67,7.69,2.79,6.68.74,12.61-.42,19.38a76.28,76.28,0,0,0,0,24.65"/><path class="cls-1" d="M226.36,64.11c-8.35,3.56,3.61,36.57-11.2,46.45-4.78,3.19-11.8,3.62-12.38,7.71-.37,2.66,2.19,5.42,4.44,6.77,7.91,4.72,20.09-3.23,21.94-4.44,1.22-.8,22.49-15.16,18-35.25C244.24,72.48,231.77,61.81,226.36,64.11Z"/><path class="cls-1" d="M233.9,84.72c-4.55.43-8.76,11.35-5.14,16.34a5.87,5.87,0,0,0,3.73,2.33c3.84.52,8.47-3.72,8.87-8.63C241.8,89.43,237.17,84.41,233.9,84.72Z"/><path class="cls-1" d="M291.64,169.35c-5.07,3.24-21.43-8.56-20.78-16.77.12-1.41.81-3.71-.44-6-1.38-2.51-3.62-2.23-4.82-4.35-1.62-2.87-.6-8.77,3.36-10.08,3.19-1,6.82,1.92,8.45,4.45,1.91,3,.61,4.61,2.29,7.48,2.28,3.91,6.09,3.27,9.42,6.12C294.77,155.07,295.41,166.94,291.64,169.35Z"/><path class="cls-1" d="M278.86,156.12c-.05,2.61,4.54,5.3,7.05,3.86a3.48,3.48,0,0,0,1.62-3.09c-.15-2.52-3.5-4.68-6.09-3.78A3.67,3.67,0,0,0,278.86,156.12Z"/><path class="cls-1" d="M3.52,80.63c7.53.3,27.06,2.07,38.44,15.66,3.42,4.09,3.57,6.22,3.38,7.47-1.52,10.11-32.07,12.62-37,13"/><path class="cls-1" d="M8.86,86.5C21.38,85.74,30,93.25,30,98.78S21.45,112,8.86,111.24"/><path class="cls-1" d="M6.64,138.23c36.84-10.93,51.39-6.31,57.73.32,2.63,2.75,6,8.08,13.47,11.86,8.47,4.29,16.35,3.6,20.53,3.53,25.31-.43,30.87,19.62,65.43,25.66,10.88,1.9,23.87,4.17,32.07-3.21s5.31-18.81,12.51-21.81,18.19,4.79,23.74,12.83c11.34,16.46,6.37,44.05-7.7,52.28-8.52,5-19.9,1.72-42.66-4.81-20.85-6-34.58-13.29-39.45-8-3.42,3.71.71,10.17-2.57,12.51-4.34,3.11-17.3-4.19-25-15.07-8.35-11.77-2.87-16.88-9.62-26-11.11-15-38.59-18.17-56.45-12.83-3.72,1.11-5.14,2-8.66,2.24-13.26.8-24.69-10.39-32.39-20.2"/><path class="cls-1" d="M16.47,145.17c2.18-7.56,32.76-9.88,46.4,3.43,2.26,2.21,5.57,6.33,4.49,8.12-1.28,2.11-7.23-1.34-16.47-.64-8.87.66-10.15,4.34-16.25,4.06C25.14,159.7,15,150.14,16.47,145.17Z"/><path class="cls-1" d="M116,170.75c-6,4.93.19,26.71,9.28,29.25a13.27,13.27,0,0,0,8.83-.69c2.56-1.25,3.43-2.94,4.64-3.95,5.26-4.41,18.5,2.87,22.75,5.11,4.84,2.54,38.48,20.2,58.27,10.21a20.77,20.77,0,0,0,8.82-8.12c6.75-12-.79-31.37-9.05-32.74-4.8-.79-7,4.94-15.56,10.68-13,8.74-27.47,8.49-35,8.36C138.24,188.32,122.93,165.06,116,170.75Z"/><path class="cls-1" d="M214.89,183.75c-11.23,9.41-18.39,10.64-23,9.75-1.58-.3-5.49-1.36-8.36.7-1.64,1.18-3.18,3.57-2.78,5.57,1.13,5.68,18.31,10.57,30.87,4.41,1.59-.78,9.46-4.64,10.91-12.07.73-3.71.06-9.32-2.78-10.21C218,181.32,215.88,182.88,214.89,183.75Z"/></g></g></svg>