<svg id="Capa_1" data-name="Capa 1" xmlns="http://www.w3.org/2000/svg" viewBox="0 0 27.03 31.46"><defs><style>.cls-1{fill:#fff;}</style></defs><title>git-logo</title><path class="cls-1" d="M17.2,0a2.25,2.25,0,0,0-1.71.76,2.56,2.56,0,0,0-.7,1.82,2.57,2.57,0,0,0,.7,1.79,2.29,2.29,0,0,0,1.71.76,2.2,2.2,0,0,0,1.67-.76,2.53,2.53,0,0,0,.71-1.79A2.57,2.57,0,0,0,18.87.76,2.2,2.2,0,0,0,17.2,0Z" transform="translate(-2.21 0)"/><path class="cls-1" d="M27.32,19.79c-1,0-1.51-.77-1.51-2.31V11.41H29V7.62H25.81c0-.5,0-1.65-.06-2.19H22V7.62H20v3.79H22v5.9a9.19,9.19,0,0,0,.73,4.23,3.53,3.53,0,0,0,3.44,1.79,6.06,6.06,0,0,0,3-.69V19.2A3.39,3.39,0,0,1,27.32,19.79Z" transform="translate(-2.21 0)"/><path class="cls-1" d="M15,7.67a10.34,10.34,0,0,1-3.69.8,6,6,0,0,0-3.08-.83,5.78,5.78,0,0,0-4,1.55,5.43,5.43,0,0,0-1.75,4.13,5.45,5.45,0,0,0,1,3.1,3.76,3.76,0,0,0,2,1.72v.07c-.79.32-1.14,1.12-1.14,2.41a2.37,2.37,0,0,0,1.14,2.2v.07c-2.17.71-3.17,2-3.17,3.95a3.92,3.92,0,0,0,2.16,3.69,8.85,8.85,0,0,0,4.31.93c4.24,0,6.37-1.78,6.37-5.34q0-3.33-4.92-4.1a2.72,2.72,0,0,1-1.72-.82A1.28,1.28,0,0,1,8,20.3a1.39,1.39,0,0,1,1.37-1.48,5.24,5.24,0,0,0,3.43-1.94A5.93,5.93,0,0,0,14.09,13a4.76,4.76,0,0,0-.32-1.48A11.93,11.93,0,0,0,15,11.22v12.1h4.16V7H15ZM8.62,24.81c1.93,0,2.89.59,2.89,1.76s-.88,1.86-2.65,1.86c-2,0-3-.6-3-1.79S6.76,24.81,8.62,24.81Zm-.24-9.08c-1.45,0-2.17-.79-2.17-2.38s.72-2.54,2.17-2.54A1.86,1.86,0,0,1,10,11.6a3,3,0,0,1,.49,1.72C10.48,14.93,9.78,15.73,8.38,15.73Z" transform="translate(-2.21 0)"/></svg>